<?xml version="1.0" encoding="UTF-8"?>
<svg width="22px" height="23px" viewBox="0 0 22 23" version="1.1" xmlns="http://www.w3.org/2000/svg" xmlns:xlink="http://www.w3.org/1999/xlink">
    <!-- Generator: Sketch 63.1 (92452) - https://sketch.com -->
    <title>EAD74653-43AF-48BC-8E48-7EEA0714AFBB</title>
    <desc>Created with Sketch.</desc>
    <g id="控件" stroke="none" stroke-width="1" fill="none" fill-rule="evenodd">
        <g id="icon/24/heart-line备份-10" transform="translate(-1.000000, 0.000000)">
            <g id="未标题-2-01" transform="translate(2.000000, 1.000000)">
                <rect id="矩形" stroke="#020202" stroke-width="1.34" x="0.03" y="8.26" width="19.58" height="12.8" rx="2.41"></rect>
                <line x1="6.06" y1="7.46" x2="6.06" y2="0.42" id="路径" stroke="#020202" stroke-width="1.34" stroke-linecap="round" stroke-linejoin="round"></line>
                <circle id="椭圆形" fill="#020202" fill-rule="nonzero" cx="5.62" cy="11.81" r="1"></circle>
                <circle id="椭圆形" fill="#020202" fill-rule="nonzero" cx="9.95" cy="13.61" r="1"></circle>
                <circle id="椭圆形" fill="#020202" fill-rule="nonzero" cx="13.9" cy="11.53" r="1"></circle>
                <circle id="椭圆形" fill="#020202" fill-rule="nonzero" cx="16.33" cy="13.25" r="1"></circle>
                <path d="M2.16,16.13 C2.66116584,15.6103038 3.29901795,15.2428455 4,15.07 C5.84,14.77 7,16.62 8.69,17.07 C10.6837339,17.5047982 12.7682651,17.0682471 14.42,15.87 C15.2412178,15.1820767 16.2896477,14.8254679 17.36,14.87 C18.3991661,15.097674 19.2400437,15.8586492 19.57,16.87" id="路径" stroke="#020202" stroke-width="1.23" stroke-linecap="round" stroke-linejoin="round"></path>
                <path d="M8.69,0.79 L6.32,7.11 C6.22904207,7.35684483 6.26362657,7.63248788 6.41274756,7.84921039 C6.56186856,8.0659329 6.80695043,8.19673831 7.07,8.2 L11.8,8.2 C12.0630496,8.19673831 12.3081314,8.0659329 12.4572524,7.84921039 C12.6063734,7.63248788 12.6409579,7.35684483 12.55,7.11 L10.2,0.79 C10.078976,0.478556083 9.77913188,0.273385412 9.445,0.273385412 C9.11086812,0.273385412 8.81102398,0.478556083 8.69,0.79 Z" id="路径" stroke="#020202" stroke-width="1.33" stroke-linecap="round" stroke-linejoin="round"></path>
                <path d="M14.4,2.49 L12.67,7.11 C12.5790421,7.35684483 12.6136266,7.63248788 12.7627476,7.84921039 C12.9118686,8.0659329 13.1569504,8.19673831 13.42,8.2 L16.88,8.2 C17.1430496,8.19673831 17.3881314,8.0659329 17.5372524,7.84921039 C17.6863734,7.63248788 17.7209579,7.35684483 17.63,7.11 L15.9,2.49 C15.7756587,2.18518327 15.4792021,1.98594117 15.15,1.98594117 C14.8207979,1.98594117 14.5243413,2.18518327 14.4,2.49 Z" id="路径" stroke="#020202" stroke-width="1.42" stroke-linecap="round" stroke-linejoin="round"></path>
                <line x1="9.44" y1="3.07" x2="9.86" y2="4.23" id="路径" stroke="#020202" stroke-width="1.33" stroke-linecap="round" stroke-linejoin="round"></line>
                <line x1="15.15" y1="4.74" x2="15.45" y2="5.58" id="路径" stroke="#020202" stroke-width="1.33" stroke-linecap="round" stroke-linejoin="round"></line>
            </g>
        </g>
    </g>
</svg>