<?xml version="1.0" encoding="UTF-8"?>
<svg width="20px" height="18px" viewBox="0 0 20 18" version="1.1" xmlns="http://www.w3.org/2000/svg" xmlns:xlink="http://www.w3.org/1999/xlink">
    <!-- Generator: Sketch 63.1 (92452) - https://sketch.com -->
    <title>A20C2124-2778-4644-B8AA-C05A5C95C787</title>
    <desc>Created with Sketch.</desc>
    <g id="控件" stroke="none" stroke-width="1" fill="none" fill-rule="evenodd">
        <g id="icon/24/heart-line备份-5" transform="translate(-2.000000, -3.000000)" fill="#333333" fill-rule="nonzero">
            <g id="huiyuan" transform="translate(2.000000, 3.000000)">
                <path d="M9.040625,0.475390625 C9.27223763,0.182946452 9.62479929,0.0123046875 9.99785156,0.0123046875 C10.3708984,0.0123046875 10.7236328,0.1828125 10.9552734,0.475390625 L14.7052734,5.21230469 L18.2941406,3.67421875 C18.7123211,3.49510848 19.1953972,3.56330215 19.5476563,3.85117188 C19.8999136,4.13912328 20.0628764,4.59903235 19.9705078,5.04453125 L17.8746094,15.1423828 C17.6208984,16.3648438 16.54375,17.241211 15.2951172,17.241211 L4.70058594,17.241211 C3.45195313,17.2414063 2.37480469,16.3650391 2.12109375,15.1423828 L0.0255859375,5.04453125 C-0.066796875,4.59902344 0.09609375,4.1390625 0.4484375,3.85117187 C0.800617447,3.56312163 1.28379867,3.49491312 1.70195313,3.67421875 L5.29082031,5.21230469 L9.040625,0.475390625 Z M9.99785156,1.68242187 L6.33398438,6.31015625 C5.99179688,6.74238281 5.40253906,6.89179687 4.89570313,6.67460937 L1.60253906,5.26308594 L3.58964844,14.8375 C3.69882813,15.3638672 4.16269531,15.7416016 4.70039063,15.7416016 L15.2953125,15.7416016 C15.8330078,15.7416016 16.296875,15.3640625 16.4060547,14.8375 L18.3931641,5.26308594 L15.0998047,6.67460938 C14.5929687,6.89179688 14.0037109,6.74238281 13.6615234,6.31015625 L9.99785156,1.68242187 Z" id="形状"></path>
            </g>
        </g>
    </g>
</svg>