<?xml version="1.0" encoding="UTF-8"?>
<svg width="20px" height="20px" viewBox="0 0 20 20" version="1.1" xmlns="http://www.w3.org/2000/svg" xmlns:xlink="http://www.w3.org/1999/xlink">
    <!-- Generator: Sketch 63.1 (92452) - https://sketch.com -->
    <title>72FD115C-E174-45F3-8FF0-5F68C0280FE5</title>
    <desc>Created with Sketch.</desc>
    <g id="控件" stroke="none" stroke-width="1" fill="none" fill-rule="evenodd">
        <g id="icon/24/heart-line备份-2" transform="translate(-2.000000, -2.000000)" fill="#333333" fill-rule="nonzero">
            <g id="piaoquan" transform="translate(2.000000, 2.000000)">
                <path d="M3.16835938,1.71230469 C3.70078125,0.25 5.48496094,-0.370507812 7.11953125,0.22421875 L16.5322266,3.65058594 L17.2466797,3.65058594 C18.7650391,3.65058594 19.9960938,4.88164063 19.9960938,6.4 L19.9960938,9.14941406 C19.9960938,9.34824219 19.9169922,9.5390625 19.7763672,9.6796875 C19.6357097,9.82028051 19.4449679,9.89924694 19.2460938,9.89921875 C18.4177734,9.89921875 17.7464844,10.5707031 17.7464844,11.3988281 C17.7464844,12.2271484 18.4179688,12.8986328 19.2460938,12.8986328 C19.6603516,12.8986328 19.9960938,13.234375 19.9960938,13.6484375 L19.9960938,16.3978516 C19.9960938,17.9162109 18.7650391,19.1472656 17.2466797,19.1472656 L2.74941406,19.1472656 C1.23105469,19.1472656 0,17.9162109 0,16.3978516 L0,13.6486328 C0,13.2345703 0.335742188,12.8988281 0.75,12.8988281 C1.57832031,12.8988281 2.24960937,12.2273437 2.24960937,11.3990234 C2.24960937,10.5707031 1.578125,9.89941406 0.75,9.89941406 C0.335742188,9.89941406 0,9.56367187 0,9.14960937 L0,6.40019531 C0,4.98046875 1.07597656,3.81191406 2.45703125,3.66601562 L3.16835938,1.71230469 Z M17.2464844,5.15039062 L16.2804687,5.15039062 L16.2789062,5.15410156 L16.2679687,5.15019531 L2.74941406,5.15039062 C2.41796875,5.15039062 2.1,5.28203125 1.865625,5.51640625 C1.63125,5.75078125 1.49960937,6.06875 1.49960937,6.40019531 L1.49960937,8.49433594 C2.79335937,8.82714844 3.74921875,10.0013672 3.74921875,11.3992188 C3.74921875,12.796875 2.79335937,13.9712891 1.49960937,14.3041016 L1.49960937,16.3982422 C1.49960937,16.7296875 1.63125,17.0476563 1.865625,17.2818359 C2.1,17.5162109 2.41796875,17.6480469 2.74941406,17.6480469 L17.2466797,17.6480469 C17.578125,17.6480469 17.8960937,17.5164063 18.1302734,17.2818359 C18.3646484,17.0474609 18.4962891,16.7296875 18.4962891,16.3982422 L18.4962891,14.3041016 C17.2025391,13.9710938 16.246875,12.796875 16.246875,11.3992188 C16.246875,10.0015625 17.2025391,8.82714844 18.4962891,8.49433594 L18.4962891,6.40019531 C18.4962891,6.06875 18.3646484,5.75078125 18.1302734,5.51640625 C17.8958984,5.28203125 17.5779297,5.15039062 17.2464844,5.15039062 Z M12.9982422,12.3064453 C13.4125,12.3064453 13.7480469,12.6421875 13.7480469,13.0564453 C13.7480469,13.4705078 13.4123047,13.80625 12.9982422,13.80625 L6.99960937,13.80625 C6.58535156,13.80625 6.24960937,13.4705078 6.24960937,13.0564453 C6.24960937,12.6421875 6.58535156,12.3064453 6.99960937,12.3064453 L12.9982422,12.3064453 Z M12.9982422,8.80722656 C13.4125,8.80722656 13.7480469,9.14296875 13.7480469,9.55703125 C13.7480469,9.97128906 13.4123047,10.3068359 12.9982422,10.3068359 L6.99960937,10.3068359 C6.58535156,10.3068359 6.24960937,9.97109375 6.24960937,9.55703125 C6.24960937,9.14296875 6.58535156,8.80722656 6.99960937,8.80722656 L12.9982422,8.80722656 Z M6.60625,1.63359375 C5.69394531,1.30175781 4.80058594,1.61210938 4.57753906,2.22519531 L4.05859375,3.65058594 L12.1474609,3.65058594 L6.60625,1.63359375 Z" id="形状"></path>
            </g>
        </g>
    </g>
</svg>