<svg id="图层_1" data-name="图层 1" xmlns="http://www.w3.org/2000/svg" viewBox="0 0 228.31 222.69"><defs><style>.cls-1{fill:#ff6700;}.cls-2{fill:#00fff2;}</style></defs><title>dog icon</title><path class="cls-1" d="M140.93,245c39.25.56,64.59-7,66.46-7.54,22.41-6.08,40.18-24.25,44.26-45.25,7.76-30.49,4.75-67-8.26-100.3A429,429,0,0,0,226.71,42c-6.21-15.63-13.53-19-18.57-19.09a10,10,0,0,0-4.47.92C192.11,28.49,177.4,62.26,174.55,69l-.06.15c-2,5.4-5.41,6.16-7.26,6.13H167a231.31,231.31,0,0,0-23.22-1.4A232,232,0,0,0,116.95,75l-.16,0h-.28c-1.83,0-5.19-.87-7.14-6.23l-.06-.15C106.51,61.81,92,27.69,80.46,23a8.76,8.76,0,0,0-3.4-.71c-4.8-.07-11.86,3.12-18.23,18.72-17,39.25-27,72.67-29.83,99.28-2.93,27.82-.79,37.18,1.7,48,.19.85.39,1.71.59,2.59C36.52,214.33,57,229.84,73,236l1.54.5c14.88,4,43.81,8.15,66.38,8.47h0" transform="translate(-27.58 -22.34)"/><path class="cls-2" d="M183.23,162.6c.06,15.38-18.24,22.65-40.85,22.74s-41-7-41-22.41,13.87-33.17,40.81-33.28C168.2,129.54,183.17,147.22,183.23,162.6Z" transform="translate(-27.58 -22.34)"/><ellipse class="cls-1" cx="142.21" cy="143.72" rx="7.61" ry="11.85" transform="translate(-32.84 259.7) rotate(-88.47)"/><ellipse class="cls-2" cx="64.61" cy="113" rx="11.37" ry="11.66"/><ellipse class="cls-2" cx="166.23" cy="113" rx="11.37" ry="11.66"/></svg>