<?xml version="1.0" encoding="UTF-8"?>
<svg width="23px" height="25px" viewBox="0 0 23 25" version="1.1" xmlns="http://www.w3.org/2000/svg" xmlns:xlink="http://www.w3.org/1999/xlink">
    <!-- Generator: Sketch 63.1 (92452) - https://sketch.com -->
    <title>36FB846D-0EE1-4508-B3C3-1EDC3D4B1B5D</title>
    <desc>Created with Sketch.</desc>
    <g id="控件" stroke="none" stroke-width="1" fill="none" fill-rule="evenodd">
        <g id="events备份-2" transform="translate(-2.000000, 0.000000)" fill-rule="nonzero">
            <g id="events备份" transform="translate(2.000000, 0.000000)">
                <path d="M7.65718006,15.4050409 C7.94854492,15.4183941 8.21677081,15.5676571 8.38169643,15.8082217 L9.77678571,17.8427269 C9.97196046,18.1273777 9.99345813,18.4967018 9.83262759,18.802075 C9.67179705,19.1074482 9.35508821,19.2986494 9.00995164,19.2987351 L5.92912946,19.2987351 C5.56873351,19.2987351 5.24078633,19.0905018 5.08746507,18.7643457 C4.9341438,18.4381896 4.98305101,18.0528156 5.21298363,17.7752976 L6.89871652,15.7407924 C7.0847708,15.516227 7.36538371,15.391931 7.65671503,15.4050409 L7.65718006,15.4050409 Z" id="路径" fill="#2C2C2C"></path>
                <path d="M7.95386905,16.8633743 C8.43194131,17.0504945 8.66797779,17.5895902 8.4812128,18.0678013 C8.35565476,18.3896019 8.18080357,19.2722284 8.47563244,19.9930246 C8.72767857,20.609189 9.00437128,21.2867374 9.02436756,22.0428757 C9.04482887,22.8427269 8.78394717,23.6193266 8.22777158,24.5028832 C8.05066726,24.7841567 7.73695847,24.9495802 7.40481628,24.9368401 C7.07267408,24.9241001 6.77255877,24.735132 6.61752089,24.4411184 C6.46248301,24.1471048 6.47607649,23.7927133 6.6531808,23.5114397 C7.08565848,22.8259859 7.17308408,22.4102493 7.16471354,22.0912388 C7.15541295,21.7285156 7.02520461,21.359747 6.75409226,20.6970796 C6.21186756,19.3717448 6.52576265,17.9603795 6.7485119,17.390718 C6.8383662,17.1609033 7.01586388,16.9762155 7.24193134,16.877311 C7.4679988,16.7784064 7.72410401,16.773393 7.95386905,16.8633743 Z" id="路径" fill="#2C2C2C" transform="translate(7.739547, 20.868429) scale(-1, 1) translate(-7.739547, -20.868429) "></path>
                <path d="M7.14983259,1.86011905 C4.4015067,1.86011905 1.86011905,4.6875 1.86011905,8.6030506 C1.86011905,12.5186012 4.4015067,15.3459821 7.14983259,15.3459821 C9.89815848,15.3459821 12.4395461,12.5186012 12.4395461,8.6030506 C12.4395461,4.6875 9.89815848,1.86011905 7.14983259,1.86011905 Z M0,8.6030506 C0,4.04343378 3.02827381,0 7.14983259,0 C11.2713914,0 14.2996652,4.04343378 14.2996652,8.6030506 C14.2996652,10.3694031 13.845115,12.0584152 13.0485421,13.4648816 C11.7890721,15.6886609 9.67457551,17.2061012 7.14983259,17.2061012 C3.02827381,17.2061012 0,13.1622024 0,8.6030506 Z" id="形状" fill="#57FF9A"></path>
                <path d="M17.1572027,6.36687035 C17.3802087,6.26134151 17.6360066,6.24874224 17.8683036,6.33184524 C18.5053943,6.55970982 19.5586868,7.1530878 20.0818452,8.23428199 C20.2506169,8.58248076 20.1861691,8.99879852 19.9200149,9.2796689 C20.2920248,9.2867346 20.624024,9.51483544 20.7640439,9.85956101 C20.7910156,9.9265253 20.8258929,10.0232515 20.8556548,10.1278832 C20.8798363,10.2125186 20.9263393,10.3887649 20.9263393,10.5794271 C20.9252711,11.0799071 20.5283447,11.4898023 20.0281575,11.5069552 C19.5279704,11.524108 19.1038965,11.1423672 19.0685454,10.6431362 L19.0662202,10.6361607 C19.0588683,10.6105132 19.0503336,10.5852195 19.0406436,10.5603609 C18.9031237,10.2221185 18.9762424,9.83469882 19.2275856,9.56984747 C18.8772172,9.5632685 18.5602886,9.36031195 18.4077381,9.04482887 C18.1798735,8.57421875 17.6376488,8.22544643 17.2414435,8.08361235 C17.009122,8.00057757 16.8193114,7.82863809 16.7137826,7.60563209 C16.6082537,7.38262608 16.5956544,7.12682827 16.6787574,6.89453125 C16.7622573,6.66220984 16.9341967,6.4723992 17.1572027,6.36687035 Z" id="路径" fill="#57FF9A"></path>
                <path d="M17.5018601,17.6190476 C17.7316198,17.7090787 17.9161816,17.8867285 18.0149129,18.112886 C18.1136442,18.3390435 18.1184506,18.5951673 18.0282738,18.8248698 C17.9603534,19.0215613 17.9201302,19.2267464 17.9087612,19.4345238 C17.89016,19.7228423 17.9208519,20.0144159 18.0226935,20.2632068 L18.0268787,20.2725074 C18.2300967,20.7682292 18.4672619,21.3462612 18.484003,21.9954427 C18.5021391,22.6920573 18.2724144,23.3584449 17.8064546,24.0969122 C17.5321614,24.5313382 16.957631,24.6611514 16.523205,24.3868582 C16.088779,24.112565 15.9589657,23.5380346 16.2332589,23.1036086 C16.5745908,22.563244 16.6299293,22.2586496 16.624349,22.0433408 C16.6178385,21.7852493 16.5252976,21.5132068 16.3020833,20.969122 C15.8356585,19.8325893 16.1053757,18.6328125 16.296503,18.1454613 C16.3865341,17.9157017 16.5641838,17.7311398 16.7903413,17.6324085 C17.0164988,17.5336772 17.2726226,17.5288709 17.5023251,17.6190476 L17.5018601,17.6190476 Z" id="路径" fill="#2C2C2C" transform="translate(17.264232, 21.042686) scale(-1, 1) translate(-17.264232, -21.042686) "></path>
                <path d="M7.9906064,2.61346726 C8.26691013,2.71392605 8.60568708,2.87198684 8.95447597,3.09351049 C9.56958223,3.48417827 10.2158267,4.07222218 10.6054687,4.88978795 C10.8263415,5.35362084 10.6293835,5.90868447 10.1655506,6.12955727 C9.7017177,6.35043007 9.14665407,6.15347202 8.92578125,5.68963914 C8.60584077,5.01767113 7.87062872,4.54938616 7.35537574,4.36197917 C7.12337992,4.27776963 6.93436795,4.10480145 6.82996377,3.88116543 C6.72555959,3.6575294 6.71432538,3.40156591 6.79873512,3.16964286 C6.97429339,2.68694747 7.50789752,2.43794609 7.9906064,2.61346726 Z" id="路径" fill="#57FF9A"></path>
                <path d="M10.23391,6.40252976 C10.4629391,6.31087692 10.718998,6.31396738 10.9457484,6.41112117 C11.1724987,6.50827496 11.351363,6.69153242 11.4429874,6.92057292 C11.4736793,6.99730283 11.5136719,7.11030506 11.5480841,7.23214286 C11.5764509,7.3344494 11.6257441,7.52836682 11.6257441,7.73111979 C11.6258911,8.23672656 11.2220948,8.64983522 10.7166161,8.66121418 C10.2111373,8.67259314 9.78916035,8.27807367 9.76655506,7.77297247 C9.75308859,7.71801407 9.73615869,7.66396267 9.71586682,7.61114211 C9.52531738,7.13434116 9.75720919,6.59332967 10.23391,6.40252976 Z" id="路径" fill="#57FF9A"></path>
                <path d="M17.1888951,16.5094866 C17.4818488,16.5227272 17.7513994,16.6733584 17.9162016,16.9159226 L19.0215774,18.5435268 C19.2151569,18.8284321 19.2354248,19.1969941 19.0742531,19.5014079 C18.9130814,19.8058216 18.5968656,19.9962325 18.2524182,19.9962798 L15.8110119,19.9962798 C15.4513594,19.9962798 15.1239256,19.788973 14.9701642,19.4638463 C14.8164028,19.1387196 14.8638764,18.7540811 15.0920759,18.4760975 L16.4281064,16.8484933 C16.6141046,16.6219081 16.8960441,16.4962761 17.1888951,16.5094866 Z" id="路径" fill="#2C2C2C"></path>
                <path d="M17.1479725,6.0453869 C16.7750186,6.0453869 16.4141555,6.11142113 16.0700335,6.23604911 C15.5890194,6.40462991 15.0619308,6.15464884 14.8881128,5.67550242 C14.7142948,5.19635599 14.9585111,4.66657174 15.4357329,4.4875372 C15.9765625,4.29129464 16.5518043,4.18526786 17.1479725,4.18526786 C20.5645461,4.18526786 23.0189732,7.52743676 23.0189732,11.218843 C23.0189732,12.6935394 22.6272569,14.1124989 21.9389686,15.2848993 C20.9043586,17.047209 19.1996439,18.2524182 17.1479725,18.2524182 C15.5705915,18.2524182 14.1708519,17.5134859 13.1482515,16.3741629 C12.9201256,16.1278674 12.8424363,15.7777468 12.9449786,15.4580783 C13.047521,15.1384097 13.3143785,14.8988119 13.6432068,14.8311745 C13.9720352,14.7635371 14.311794,14.8783587 14.5321801,15.1316034 C15.2608817,15.9435454 16.1807106,16.3922991 17.1479725,16.3922991 C19.1894531,16.3922991 21.1588542,14.2694382 21.1588542,11.218843 C21.1588542,8.16824777 19.1889881,6.0453869 17.1479725,6.0453869 Z" id="路径" fill="#57FF9A"></path>
            </g>
        </g>
    </g>
</svg>