<?xml version="1.0" encoding="UTF-8"?>
<svg width="24px" height="24px" viewBox="0 0 24 24" version="1.1" xmlns="http://www.w3.org/2000/svg" xmlns:xlink="http://www.w3.org/1999/xlink">
    <!-- Generator: Sketch 63.1 (92452) - https://sketch.com -->
    <title>85E49BA0-69EC-44B6-A3D4-FBB3CF2F887D</title>
    <desc>Created with Sketch.</desc>
    <g id="控件" stroke="none" stroke-width="1" fill="none" fill-rule="evenodd">
        <g id="iconfood" transform="translate(-1.000000, -1.000000)" fill="#2C2C2C" fill-rule="nonzero">
            <g id="food" transform="translate(1.000000, 1.000000)">
                <path d="M5.62638889,1.85185185 C3.73425926,1.85185185 1.87824074,3.84074074 1.87824074,6.73657407 C1.87824074,9.63287037 3.73472222,11.6217593 5.62638889,11.6217593 C7.51805556,11.6217593 9.37453704,9.63287037 9.37453704,6.73657407 C9.37453704,3.84074074 7.51805556,1.85185185 5.62638889,1.85185185 Z M0.0263888889,6.73657407 C0.0263888889,3.21435185 2.35555556,0 5.62638889,0 C8.89722222,0 11.2263889,3.21435185 11.2263889,6.73657407 C11.2263889,10.2587963 8.89722222,13.4736111 5.62638889,13.4736111 C2.35555556,13.4736111 0.0263888889,10.2587963 0.0263888889,6.73611111 L0.0263888889,6.73657407 Z" id="形状"></path>
                <path d="M7.43703704,11.562037 C7.6816997,11.5400596 7.92506838,11.6162049 8.11357367,11.7737124 C8.30207895,11.9312198 8.4202695,12.1571787 8.44212963,12.4018519 L9.13935185,20.1782407 C9.36157407,22.1944444 7.78287037,23.9583333 5.75277778,23.9583333 C3.72268519,23.9583333 2.14398148,22.1944444 2.36574074,20.1782407 L3.06296296,12.4018519 C3.11064503,11.8942637 3.5596818,11.5207179 4.06746999,11.56622 C4.57525818,11.6117221 4.9507287,12.0591507 4.90740741,12.5671296 L4.20925926,20.3541667 C4.13372842,20.9519932 4.41025942,21.5396645 4.91903234,21.8625447 C5.42780526,22.1854248 6.07728734,22.1854248 6.58606025,21.8625447 C7.09483317,21.5396645 7.37136417,20.9519932 7.29583333,20.3541667 L6.59768519,12.5671296 C6.55218132,12.0579709 6.92790185,11.6082668 7.43703704,11.5625 L7.43703704,11.562037 Z M19.6458333,11.562037 C20.1551574,11.5165413 20.6049352,11.8925307 20.650463,12.4018519 L21.3476852,20.1782407 C21.5699074,22.1944444 19.9912037,23.9583333 17.9611111,23.9583333 C15.9310185,23.9583333 14.3523148,22.1944444 14.5740741,20.1782407 L15.2717593,12.4018519 C15.3280562,11.9018347 15.7733646,11.5382984 16.2745319,11.5832185 C16.7756992,11.6281386 17.1492608,12.065071 17.1157407,12.5671296 L16.4180556,20.3541667 C16.3425247,20.9519932 16.6190557,21.5396645 17.1278286,21.8625447 C17.6366016,22.1854248 18.2860836,22.1854248 18.7948566,21.8625447 C19.3036295,21.5396645 19.5801605,20.9519932 19.5046296,20.3541667 L18.8060185,12.5671296 C18.7605228,12.0578056 19.1365121,11.6080278 19.6458333,11.5625 L19.6458333,11.562037 Z" id="形状"></path>
                <path d="M13.3319444,0.884259259 C13.8433192,0.884259259 14.2578704,1.29881042 14.2578704,1.81018519 L14.2578704,8 C14.2578704,10.0002424 15.8793872,11.6217593 17.8796296,11.6217593 C19.879872,11.6217593 21.5013889,10.0002424 21.5013889,8 L21.5013889,1.81018519 C21.5013889,1.29881042 21.91594,0.884259259 22.4273148,0.884259259 C22.9386896,0.884259259 23.3532407,1.29881042 23.3532407,1.81018519 L23.3532407,8 C23.3532407,11.0231481 20.9027778,13.4736111 17.8796296,13.4736111 C14.8564815,13.4736111 12.4060185,11.0231481 12.4060185,8 L12.4060185,1.81018519 C12.4060185,1.29881042 12.8205697,0.884259259 13.3319444,0.884259259 Z" id="路径"></path>
                <path d="M16.3638889,0.126388889 C16.8752637,0.126388889 17.2898148,0.540940046 17.2898148,1.05231481 L17.2898148,8.50462963 C17.2898148,9.0160044 16.8752637,9.43055556 16.3638889,9.43055556 C15.8525141,9.43055556 15.437963,9.0160044 15.437963,8.50462963 L15.437963,1.05231481 C15.437963,0.540940046 15.8525141,0.126388889 16.3638889,0.126388889 Z M19.3388889,0.126388889 C19.8502637,0.126388889 20.2648148,0.540940046 20.2648148,1.05231481 L20.2648148,8.50462963 C20.2648148,9.0160044 19.8502637,9.43055556 19.3388889,9.43055556 C18.8275141,9.43055556 18.412963,9.0160044 18.412963,8.50462963 L18.412963,1.05231481 C18.412963,0.540940046 18.8275141,0.126388889 19.3388889,0.126388889 Z" id="形状"></path>
            </g>
        </g>
    </g>
</svg>