<?xml version="1.0" encoding="UTF-8"?>
<svg width="23px" height="25px" viewBox="0 0 23 25" version="1.1" xmlns="http://www.w3.org/2000/svg" xmlns:xlink="http://www.w3.org/1999/xlink">
    <!-- Generator: Sketch 63.1 (92452) - https://sketch.com -->
    <title>7D453986-F7FF-4A9C-BB7E-5866A6E9C1BB</title>
    <desc>Created with Sketch.</desc>
    <g id="控件" stroke="none" stroke-width="1" fill="none" fill-rule="evenodd">
        <g id="iconfood备份-2" transform="translate(-1.000000, 0.000000)">
            <g id="food备份" transform="translate(1.000000, 0.000000)">
                <path d="M7.21264368,12.9373204 C7.44992427,12.916006 7.68594994,12.9898539 7.86876757,13.142609 C8.05158519,13.295364 8.16620964,13.5145052 8.1874102,13.751796 L8.86359555,21.2935524 C9.07911279,23.2489224 7.54804239,24.9595905 5.57920259,24.9595905 C3.61036279,24.9595905 2.07929239,23.2489224 2.29436063,21.2935524 L2.97054598,13.751796 C3.01678937,13.259523 3.45227761,12.8972479 3.9447446,12.9413771 C4.43721159,12.9855063 4.80135327,13.419435 4.75933908,13.9120869 L4.08225575,21.4641703 C4.00900386,22.0439589 4.27719125,22.6138988 4.77061326,22.9270369 C5.26403527,23.240175 5.89392091,23.240175 6.38734292,22.9270369 C6.88076493,22.6138988 7.14895232,22.0439589 7.07570043,21.4641703 L6.3986171,13.9120869 C6.3544862,13.4182907 6.71887033,12.9821553 7.21264368,12.9377694 L7.21264368,12.9373204 Z M19.0530711,12.9373204 C19.5470276,12.8931974 19.9832345,13.2578422 20.0273886,13.751796 L20.703574,21.2935524 C20.9190912,23.2489224 19.3880208,24.9595905 17.419181,24.9595905 C15.4503412,24.9595905 13.9192708,23.2489224 14.1343391,21.2935524 L14.8109734,13.751796 C14.8655718,13.2668656 15.2974441,12.914298 15.78349,12.9578628 C16.2695358,13.0014275 16.6318262,13.4251766 16.5993175,13.9120869 L15.9226832,21.4641703 C15.8494313,22.0439589 16.1176187,22.6138988 16.6110407,22.9270369 C17.1044627,23.240175 17.7343483,23.240175 18.2277704,22.9270369 C18.7211924,22.6138988 18.9893798,22.0439589 18.9161279,21.4641703 L18.2385955,13.9120869 C18.1944725,13.4181304 18.5591174,12.9819235 19.0530711,12.9377694 L19.0530711,12.9373204 Z" id="形状" fill="#2C2C2C" fill-rule="nonzero"></path>
                <path d="M12.9296875,2.58171695 C13.4256329,2.58171695 13.827676,2.9837601 13.827676,3.47970546 L13.827676,9.48275862 C13.827676,11.4226489 15.4002678,12.9952407 17.340158,12.9952407 C19.2800483,12.9952407 20.8526401,11.4226489 20.8526401,9.48275862 L20.8526401,3.47970546 C20.8526401,2.9837601 21.2546832,2.58171695 21.7506286,2.58171695 C22.2465739,2.58171695 22.6486171,2.9837601 22.6486171,3.47970546 L22.6486171,9.48275862 C22.6486171,12.4146911 20.2720905,14.7912177 17.340158,14.7912177 C14.4082256,14.7912177 12.031699,12.4146911 12.031699,9.48275862 L12.031699,3.47970546 C12.031699,2.9837601 12.4337421,2.58171695 12.9296875,2.58171695 Z" id="路径" fill="#2C2C2C" fill-rule="nonzero"></path>
                <path d="M15.9259259,1 C16.4373007,1 16.8518519,1.41455116 16.8518519,1.92592593 L16.8518519,9.37824074 C16.8518519,9.88961551 16.4373007,10.3041667 15.9259259,10.3041667 C15.4145512,10.3041667 15,9.88961551 15,9.37824074 L15,1.92592593 C15,1.41455116 15.4145512,1 15.9259259,1 Z M18.9009259,1 C19.4123007,1 19.8268519,1.41455116 19.8268519,1.92592593 L19.8268519,9.37824074 C19.8268519,9.88961551 19.4123007,10.3041667 18.9009259,10.3041667 C18.3895512,10.3041667 17.975,9.88961551 17.975,9.37824074 L17.975,1.92592593 C17.975,1.41455116 18.3895512,1 18.9009259,1 Z" id="形状备份" fill="#2C2C2C" fill-rule="nonzero"></path>
                <circle id="椭圆形" fill="#57FF9A" cx="19" cy="2" r="2"></circle>
                <path d="M5.45662716,1.72413793 C8.62877155,1.72413793 10.8876616,4.84150503 10.8876616,8.2574533 C10.8876616,11.6734016 8.62877155,14.7912177 5.45662716,14.7912177 C2.28448276,14.7912177 0.0255926724,11.6734016 0.0255926724,8.25700431 C0.0255926724,4.84150503 2.28448276,1.72413793 5.45662716,1.72413793 Z" id="形状" fill="#57FF9A" fill-rule="nonzero"></path>
            </g>
        </g>
    </g>
</svg>