<?xml version="1.0" encoding="UTF-8"?>
<svg width="20px" height="20px" viewBox="0 0 20 20" version="1.1" xmlns="http://www.w3.org/2000/svg" xmlns:xlink="http://www.w3.org/1999/xlink">
    <!-- Generator: Sketch 63.1 (92452) - https://sketch.com -->
    <title>D3D8E926-8BC1-4E9A-8BA1-E46224F3CC42</title>
    <desc>Created with Sketch.</desc>
    <g id="控件" stroke="none" stroke-width="1" fill="none" fill-rule="evenodd">
        <g id="icon/24/heart-line备份-6" transform="translate(-2.000000, -2.000000)" fill="#333333" fill-rule="nonzero">
            <g id="lihe" transform="translate(2.000000, 2.000000)">
                <path d="M10.8701172,1.24453125 C11.3019531,0.484960937 12.1076172,0.01484375 12.9814453,0.0130798273 C13.8552734,0.0111328125 14.6628906,0.477539062 15.0980469,1.23535156 C15.5333984,1.99296875 15.5291016,2.92558594 15.0873047,3.67949219 L14.6291016,4.47324219 L18.2,4.47324219 C19.1669922,4.47324219 19.9599609,5.23945312 19.9931641,6.20585937 L19.9943359,6.26738281 L19.9943359,8.31777344 C19.9943359,9.30878906 19.1910156,10.1119141 18.2001953,10.1119141 L17.94375,10.1119141 L17.94375,17.0320312 C17.94375,18.5894531 16.6816406,19.8513672 15.1244141,19.8513672 L4.87207031,19.8513672 C3.31503906,19.8513672 2.05273438,18.5894531 2.05273438,17.0320312 L2.05273438,10.1119141 L1.79648438,10.1119141 C0.8296875,10.1119141 0.0365234375,9.34589844 0.0033203125,8.3796875 L0.00234375,8.31816406 L0.00234375,6.26757812 C0.00234375,5.27675781 0.80546875,4.4734375 1.79648438,4.4734375 L5.21132812,4.47324219 L4.753125,3.67949219 C4.31113281,2.92558594 4.30703125,1.99296875 4.7421875,1.23535156 C5.17734375,0.477734375 5.98515625,0.011328125 6.85878906,0.0130798273 C7.73261719,0.0150390625 8.53828125,0.484960937 8.97011719,1.24453125 L9.91992187,2.88925781 L10.8701172,1.24453125 Z M16.4058594,10.1121094 L3.590625,10.1121094 L3.590625,17.0324219 C3.590625,17.3722656 3.72558594,17.6982422 3.96601562,17.9384766 C4.20626451,18.1788657 4.53220792,18.3138672 4.87207031,18.3138672 L15.1242187,18.3138672 C15.4640625,18.3138672 15.7902344,18.1789063 16.0304687,17.9384766 C16.2707796,17.6981754 16.4058594,17.3722659 16.4058594,17.0324219 L16.4058594,10.1121094 Z M18.2,6.01132812 L1.79648438,6.01132812 C1.65488281,6.01132812 1.54003906,6.12597656 1.54003906,6.26757812 L1.54003906,8.31796875 C1.54003906,8.45957031 1.65488281,8.57441406 1.79648438,8.57441406 L18.1998047,8.57441406 C18.3412109,8.57441406 18.4560547,8.45957031 18.4560547,8.31796875 L18.4560547,6.26757812 C18.4560547,6.12597656 18.3414062,6.01132812 18.2,6.01132812 Z M6.41328125,1.68496094 C6.20722391,1.80395075 6.05688504,1.99993451 5.99534734,2.22978515 C5.93380964,2.45963578 5.96611563,2.70451888 6.08515625,2.91054687 L6.98710937,4.47324219 L9.00585938,4.47324219 L9.03242187,4.42714844 L7.63867188,2.01347656 C7.39101562,1.58457031 6.84257813,1.4375 6.41347656,1.68496094 L6.41328125,1.68496094 L6.41328125,1.68496094 Z M13.4273438,1.68496094 C12.9982422,1.4375 12.4498047,1.58457031 12.2021484,2.01347656 L10.8080078,4.42734375 L10.834375,4.47324219 L12.8535156,4.47324219 L13.7556641,2.91054687 C13.9935547,2.49863281 13.8683594,1.97265625 13.4707031,1.71191406 L13.4273437,1.68496094 L13.4273438,1.68496094 Z" id="形状"></path>
            </g>
        </g>
    </g>
</svg>