<?xml version="1.0" encoding="UTF-8"?>
<svg width="25px" height="23px" viewBox="0 0 25 23" version="1.1" xmlns="http://www.w3.org/2000/svg" xmlns:xlink="http://www.w3.org/1999/xlink">
    <!-- Generator: Sketch 63.1 (92452) - https://sketch.com -->
    <title>0B225ADA-48B6-4112-A7DA-6228A883A9C4</title>
    <desc>Created with Sketch.</desc>
    <g id="控件" stroke="none" stroke-width="1" fill="none" fill-rule="evenodd">
        <g id="home" transform="translate(-1.000000, -2.000000)" fill="#2C2C2C" fill-rule="nonzero">
            <g transform="translate(1.000000, 2.000000)">
                <path d="M4.58672337,1.84911243 C4.19933432,1.84911243 3.85909763,2.06360947 3.69914941,2.38997781 C3.18925666,3.43241494 2.46671598,4.97411243 2.10197855,6.03550296 C1.84310281,6.78901627 1.78670488,7.62481509 1.9152182,8.34227071 C2.04650518,9.07775518 2.34513683,9.56222263 2.66318417,9.78504068 C3.24842825,10.1950814 4.05094305,10.2782914 4.68518861,10.0318972 C5.26303624,9.80769231 5.7179179,9.30981879 5.7179179,8.4079142 C5.7179179,7.8972959 6.13185582,7.48335799 6.64247411,7.48335799 C7.15309241,7.48335799 7.56703033,7.8972959 7.56703033,8.4079142 C7.56703033,9.0245932 7.80602811,9.4341716 8.14025518,9.70691568 C8.49620932,9.99861317 9.00933802,10.1701183 9.56176036,10.1701183 C10.114645,10.1701183 10.6273114,9.99907544 10.9837278,9.70737796 C11.3179549,9.4341716 11.5569527,9.0245932 11.5569527,8.4079142 C11.5569527,7.8972959 11.9708906,7.48335799 12.4815089,7.48335799 C12.9921272,7.48335799 13.4060651,7.8972959 13.4060651,8.4079142 C13.4060651,9.0245932 13.6450629,9.4341716 13.9792899,9.70691568 C14.3352441,9.99861317 14.8483728,10.1701183 15.4012574,10.1701183 C15.9536797,10.1701183 16.4663462,9.99907544 16.8227626,9.70737796 C17.1569896,9.4341716 17.3959874,9.0245932 17.3959874,8.4079142 C17.3959874,7.8972959 17.8099253,7.48335799 18.3205436,7.48335799 C18.8311619,7.48335799 19.2450999,7.8972959 19.2450999,8.4079142 C19.2450999,9.30981879 19.6999815,9.80769231 20.2778291,10.0318972 C20.9120747,10.2782914 21.7145895,10.1950814 22.2998336,9.78504068 C22.6183432,9.56222263 22.9165126,9.07775518 23.0477996,8.34273299 C23.1763129,7.62481509 23.1194527,6.78947855 22.8610392,6.03596524 C22.4963018,4.97411243 21.7737611,3.43241494 21.2638683,2.38951553 C21.0955546,2.05460114 20.7511,1.84487852 20.3762944,1.84911243 C19.8656761,1.84911243 19.4517382,1.43517451 19.4517382,0.924556213 C19.4517382,0.413937916 19.8656761,-7.39053789e-15 20.3762944,-7.39053789e-15 C21.447855,-7.39053789e-15 22.4449889,0.597263314 22.9243713,1.57683062 L22.0941198,1.98363536 L22.9248336,1.57683062 C23.4319527,2.61418269 24.2030325,4.25110947 24.6098373,5.4350037 C24.9704142,6.48529956 25.0517751,7.63914571 24.8682507,8.6677145 C24.6879623,9.67779216 24.2233728,10.6957286 23.3602996,11.299926 C22.2600777,12.0700814 20.8075999,12.2212463 19.6089127,11.7557322 C19.1072281,11.5637165 18.6568904,11.2580059 18.2932692,10.8626109 C18.1989417,10.9604258 18.0989152,11.0525798 17.993713,11.138591 C17.2549926,11.7427885 16.308247,12.0192308 15.4012574,12.0192308 C14.4938055,12.0192308 13.5470599,11.7427885 12.8083395,11.138591 C12.6929092,11.0440685 12.5837362,10.9421531 12.4815089,10.8334874 C12.3792816,10.9421531 12.2701085,11.0440685 12.1546783,11.138591 C11.4159578,11.7427885 10.4692123,12.0192308 9.56176036,12.0192308 C8.65477071,12.0192308 7.70802515,11.7427885 6.96930473,11.138591 C6.86410255,11.0525798 6.76407606,10.9604258 6.66974852,10.8626109 C6.30612732,11.2580059 5.8557897,11.5637165 5.35410503,11.7557322 C4.1554179,12.2212463 2.70294009,12.0700814 1.6027182,11.299926 C0.73964497,10.6957286 0.275517751,9.67779216 0.0947670118,8.6677145 C-0.0887573964,7.63960799 -0.0069341716,6.48529956 0.353642751,5.4350037 C0.759522929,4.25110947 1.53106509,2.61372041 2.03818417,1.57683062 C2.51802885,0.596801036 3.51516272,-7.39053789e-15 4.58672337,-7.39053789e-15 C5.09734167,-7.39053789e-15 5.51127959,0.413937916 5.51127959,0.924556213 C5.51127959,1.43517451 5.09734167,1.84911243 4.58672337,1.84911243 Z" id="路径"></path>
                <path d="M3.69822485,0.924556213 C3.69822485,0.413937916 4.11216277,0 4.62278107,0 L20.3402367,0 C20.850855,0 21.2647929,0.413937916 21.2647929,0.924556213 C21.2647929,1.43517451 20.850855,1.84911243 20.3402367,1.84911243 L4.62278107,1.84911243 C4.11216277,1.84911243 3.69822485,1.43517451 3.69822485,0.924556213 Z M8.16151997,2.9308432 C8.64899295,3.08167754 8.92209824,3.59892241 8.77172707,4.08653846 L8.16429364,6.05122041 C8.06685157,6.36683366 7.80843373,6.6064876 7.4863836,6.6799069 C7.16433348,6.75332621 6.82757816,6.64935675 6.60297012,6.40716282 C6.37836208,6.16496888 6.30002463,5.82134548 6.39746672,5.50573225 L7.00490015,3.5410503 C7.07732711,3.3067328 7.23988689,3.11079334 7.45680518,2.99635204 C7.67372346,2.88191073 7.92722425,2.85834582 8.16151997,2.9308432 L8.16151997,2.9308432 Z M17.0326368,2.9308432 C17.2669326,2.85834582 17.5204333,2.88191073 17.7373516,2.99635204 C17.9542699,3.11079334 18.1168297,3.3067328 18.1892567,3.5410503 L18.7966901,5.50573225 C18.8941322,5.82134548 18.8157947,6.16496887 18.5911867,6.4071628 C18.3665786,6.64935674 18.0298233,6.7533262 17.7077732,6.67990689 C17.3857231,6.60648758 17.1273052,6.36683365 17.0298632,6.05122041 L16.4224297,4.08653846 C16.2720586,3.59892241 16.5451639,3.08167754 17.0326368,2.9308432 L17.0326368,2.9308432 Z M12.6271265,2.88923817 C13.1377448,2.88923817 13.5516827,3.30317608 13.5516827,3.81379438 L13.5516827,5.77847633 C13.5516827,6.28909463 13.1377448,6.70303254 12.6271265,6.70303254 C12.1165082,6.70303254 11.7025703,6.28909463 11.7025703,5.77847633 L11.7025703,3.81379438 C11.7025703,3.30317608 12.1165082,2.88923817 12.6271265,2.88923817 Z M2.65809911,12.8282175 C3.16871741,12.8282175 3.58265533,13.2421554 3.58265533,13.7527737 L3.58265533,19.8779586 C3.58265533,20.3885769 3.99659324,20.8025148 4.50721154,20.8025148 L20.4558062,20.8025148 C20.9664245,20.8025148 21.3803624,20.3885769 21.3803624,19.8779586 L21.3803624,13.7527737 C21.3803624,13.2421554 21.7943003,12.8282175 22.3049186,12.8282175 C22.8155369,12.8282175 23.2294749,13.2421554 23.2294749,13.7527737 L23.2294749,19.8779586 C23.2294749,21.4098135 21.9876611,22.6516272 20.4558062,22.6516272 L4.50721154,22.6516272 C2.97535665,22.6516272 1.7335429,21.4098135 1.7335429,19.8779586 L1.7335429,13.7527737 C1.7335429,13.2421554 2.14748082,12.8282175 2.65809911,12.8282175 Z" id="形状"></path>
                <path d="M12.943787,22.0737796 C13.4544053,22.0737796 13.8683432,21.6598417 13.8683432,21.1492234 L13.8683432,17.335429 C13.8683432,16.8248107 14.2822811,16.4108728 14.7928994,16.4108728 L16.0641642,16.4108728 C16.5747825,16.4108728 16.9887204,16.8248107 16.9887204,17.335429 L16.9887204,21.1492234 C16.9887204,21.6598417 17.4026583,22.0737796 17.9132766,22.0737796 C18.4238949,22.0737796 18.8378328,21.6598417 18.8378328,21.1492234 L18.8378328,17.335429 C18.8378328,15.8035741 17.5960191,14.5617604 16.0641642,14.5617604 L14.7928994,14.5617604 C13.2610445,14.5617604 12.0192308,15.8035741 12.0192308,17.335429 L12.0192308,21.1492234 C12.0192308,21.6598417 12.4331687,22.0737796 12.943787,22.0737796 Z" id="路径"></path>
            </g>
        </g>
    </g>
</svg>