<?xml version="1.0" encoding="UTF-8"?>
<svg width="27px" height="24px" viewBox="0 0 27 24" version="1.1" xmlns="http://www.w3.org/2000/svg" xmlns:xlink="http://www.w3.org/1999/xlink">
    <!-- Generator: Sketch 63.1 (92452) - https://sketch.com -->
    <title>4615DB14-6985-4A99-836A-64535A249AFA</title>
    <desc>Created with Sketch.</desc>
    <g id="控件" stroke="none" stroke-width="1" fill="none" fill-rule="evenodd">
        <g id="home备份-2" transform="translate(0.000000, -1.000000)" fill-rule="nonzero">
            <g id="home备份" transform="translate(0.000000, 1.000000)">
                <path d="M13.6363636,23.2548701 C14.1743033,23.2548701 14.6103896,22.8187838 14.6103896,22.2808442 L14.6103896,18.262987 C14.6103896,17.7250473 15.0464759,17.288961 15.5844156,17.288961 L16.9237013,17.288961 C17.461641,17.288961 17.8977273,17.7250473 17.8977273,18.262987 L17.8977273,22.2808442 C17.8977273,22.8187838 18.3338136,23.2548701 18.8717532,23.2548701 C19.4096929,23.2548701 19.8457792,22.8187838 19.8457792,22.2808442 L19.8457792,18.262987 C19.8457792,16.6491679 18.5375204,15.3409091 16.9237013,15.3409091 L15.5844156,15.3409091 C13.9705965,15.3409091 12.6623377,16.6491679 12.6623377,18.262987 L12.6623377,22.2808442 C12.6623377,22.8187838 13.0984239,23.2548701 13.6363636,23.2548701 Z" id="路径" fill="#2C2C2C"></path>
                <rect id="矩形" fill="#57FF9A" x="13.8701299" y="16.8311688" width="4.67532468" height="5.76623377" rx="1"></rect>
                <path d="M4.83214286,1.94805195 C4.42402597,1.94805195 4.06558442,2.17402597 3.89707792,2.51785714 C3.3599026,3.61607143 2.5987013,5.24025974 2.21444805,6.35844156 C1.94172078,7.15227273 1.88230519,8.03279221 2.01769481,8.78863636 C2.15600649,9.56347403 2.47061688,10.0738636 2.80568182,10.3086039 C3.42224026,10.7405844 4.26769481,10.8282468 4.93587662,10.5686688 C5.54464286,10.3324675 6.02386364,9.80795455 6.02386364,8.85779221 C6.02386364,8.31985252 6.45994992,7.88376623 6.99788961,7.88376623 C7.5358293,7.88376623 7.97191558,8.31985252 7.97191558,8.85779221 C7.97191558,9.50746753 8.2237013,9.93896104 8.57581169,10.2262987 C8.95081169,10.5336039 9.4913961,10.7142857 10.0733766,10.7142857 C10.6558442,10.7142857 11.1959416,10.5340909 11.5714286,10.2267857 C11.923539,9.93896104 12.1753247,9.50746753 12.1753247,8.85779221 C12.1753247,8.31985252 12.611411,7.88376623 13.1493506,7.88376623 C13.6872903,7.88376623 14.1233766,8.31985252 14.1233766,8.85779221 C14.1233766,9.50746753 14.3751623,9.93896104 14.7272727,10.2262987 C15.1022727,10.5336039 15.6428571,10.7142857 16.2253247,10.7142857 C16.8073052,10.7142857 17.3474026,10.5340909 17.7228896,10.2267857 C18.075,9.93896104 18.3267857,9.50746753 18.3267857,8.85779221 C18.3267857,8.31985252 18.762872,7.88376623 19.3008117,7.88376623 C19.8387514,7.88376623 20.2748377,8.31985252 20.2748377,8.85779221 C20.2748377,9.80795455 20.7540584,10.3324675 21.3628247,10.5686688 C22.0310065,10.8282468 22.876461,10.7405844 23.4930195,10.3086039 C23.8285714,10.0738636 24.1426948,9.56347403 24.2810065,8.78912338 C24.4163961,8.03279221 24.3564935,7.15275974 24.0842532,6.35892857 C23.7,5.24025974 22.9387987,3.61607143 22.4016234,2.51737013 C22.2243037,2.16453564 21.8614186,1.9435915 21.4665584,1.94805195 C20.9286188,1.94805195 20.4925325,1.51196567 20.4925325,0.974025974 C20.4925325,0.436086283 20.9286188,-7.78597965e-15 21.4665584,-7.78597965e-15 C22.5954545,-7.78597965e-15 23.6459416,0.629220779 24.150974,1.6612013 L23.2762987,2.08977273 L24.151461,1.6612013 C24.6857143,2.75405844 25.4980519,4.47857143 25.9266234,5.72581169 C26.3064935,6.83230519 26.3922078,8.04788961 26.1988636,9.13149351 C26.0089286,10.1956169 25.5194805,11.2680195 24.6102273,11.9045455 C23.4511364,12.7159091 21.9209416,12.8751623 20.6581169,12.3847403 C20.1295888,12.1824504 19.6551552,11.8603823 19.2720779,11.4438312 C19.1727032,11.5468797 19.0673247,11.6439646 18.9564935,11.7345779 C18.1782468,12.3711039 17.1808442,12.6623377 16.2253247,12.6623377 C15.2693182,12.6623377 14.2719156,12.3711039 13.4936688,11.7345779 C13.3720623,11.6349979 13.2570478,11.5276293 13.1493506,11.4131494 C13.0416535,11.5276293 12.926639,11.6349979 12.8050325,11.7345779 C12.0267857,12.3711039 11.0293831,12.6623377 10.0733766,12.6623377 C9.11785714,12.6623377 8.12045455,12.3711039 7.34220779,11.7345779 C7.23137661,11.6439646 7.12599805,11.5468797 7.02662338,11.4438312 C6.64354609,11.8603823 6.16911247,12.1824504 5.64058442,12.3847403 C4.37775974,12.8751623 2.84756494,12.7159091 1.68847403,11.9045455 C0.779220779,11.2680195 0.29025974,10.1956169 0.0998376623,9.13149351 C-0.0935064935,8.04837662 -0.00730519481,6.83230519 0.372564935,5.72581169 C0.800162338,4.47857143 1.61298701,2.75357143 2.14724026,1.6612013 C2.65275974,0.628733766 3.70324675,-7.78597965e-15 4.83214286,-7.78597965e-15 C5.37008255,-7.78597965e-15 5.80616883,0.436086283 5.80616883,0.974025974 C5.80616883,1.51196567 5.37008255,1.94805195 4.83214286,1.94805195 Z" id="路径" fill="#2C2C2C"></path>
                <path d="M3.8961039,0.974025974 C3.8961039,0.436086283 4.33219018,0 4.87012987,0 L21.4285714,0 C21.9665111,0 22.4025974,0.436086283 22.4025974,0.974025974 C22.4025974,1.51196567 21.9665111,1.94805195 21.4285714,1.94805195 L4.87012987,1.94805195 C4.33219018,1.94805195 3.8961039,1.51196567 3.8961039,0.974025974 Z M8.59821429,3.08766234 C9.11177024,3.24656729 9.39948844,3.79148813 9.24107143,4.30519481 L8.60113636,6.375 C8.49848051,6.7075006 8.22623563,6.95997758 7.88695374,7.0373253 C7.54767185,7.11467302 7.19289793,7.00514052 6.9562719,6.74998763 C6.71964587,6.49483474 6.63711685,6.13282527 6.73977273,5.80032468 L7.37970779,3.73051948 C7.45601007,3.48366448 7.62726785,3.27724098 7.85579267,3.15667633 C8.0843175,3.03611167 8.35138222,3.01128588 8.59821429,3.08766234 L8.59821429,3.08766234 Z M17.9439935,3.08766234 C18.1908256,3.01128588 18.4578903,3.03611167 18.6864151,3.15667633 C18.9149399,3.27724098 19.0861977,3.48366448 19.1625,3.73051948 L19.8024351,5.80032468 C19.9050909,6.13282527 19.8225619,6.49483474 19.5859359,6.74998762 C19.3493099,7.0051405 18.9945359,7.114673 18.6552541,7.03732528 C18.3159722,6.95997757 18.0437273,6.7075006 17.9410714,6.375 L17.3011364,4.30519481 C17.1427194,3.79148813 17.4304376,3.24656729 17.9439935,3.08766234 L17.9439935,3.08766234 Z M13.3027597,3.04383117 C13.8406994,3.04383117 14.2767857,3.47991745 14.2767857,4.01785714 L14.2767857,6.08766234 C14.2767857,6.62560203 13.8406994,7.06168831 13.3027597,7.06168831 C12.76482,7.06168831 12.3287338,6.62560203 12.3287338,6.08766234 L12.3287338,4.01785714 C12.3287338,3.47991745 12.76482,3.04383117 13.3027597,3.04383117 Z M2.80032468,13.5146104 C3.33826437,13.5146104 3.77435065,13.9506967 3.77435065,14.4886364 L3.77435065,20.9415584 C3.77435065,21.4794981 4.21043693,21.9155844 4.74837662,21.9155844 L21.5503247,21.9155844 C22.0882644,21.9155844 22.5243506,21.4794981 22.5243506,20.9415584 L22.5243506,14.4886364 C22.5243506,13.9506967 22.9604369,13.5146104 23.4983766,13.5146104 C24.0363163,13.5146104 24.4724026,13.9506967 24.4724026,14.4886364 L24.4724026,20.9415584 C24.4724026,22.5553775 23.1641437,23.8636364 21.5503247,23.8636364 L4.74837662,23.8636364 C3.13455755,23.8636364 1.8262987,22.5553775 1.8262987,20.9415584 L1.8262987,14.4886364 C1.8262987,13.9506967 2.26238498,13.5146104 2.80032468,13.5146104 Z" id="形状" fill="#2C2C2C"></path>
                <rect id="矩形" stroke="#2C2C2C" stroke-width="1.5" fill="#57FF9A" x="5.17207792" y="13.7970779" width="5.70779221" height="5.24025974" rx="2.62012987"></rect>
            </g>
        </g>
    </g>
</svg>