<svg xmlns="http://www.w3.org/2000/svg" viewBox="0 0 200 200"><path d="M51.6,181.4c-11,0-19.9-8.9-19.9-19.9V72.7c0-11,8.9-19.9,19.9-19.9h96.9c11,0,19.9,8.9,19.9,19.9v88.8 c0,11-8.9,19.9-19.9,19.9H51.6z" fill="#57ff9a"/><g fill="#2c2c2c"><path d="M148.4 58.8c7.7 0 13.9 6.3 13.9 13.9v88.8c0 7.7-6.3 13.9-13.9 13.9H51.6c-7.7 0-13.9-6.3-13.9-13.9V72.7c0-7.7 6.3-13.9 13.9-13.9h96.8m0-12H51.6a25.91 25.91 0 0 0-25.9 25.9v88.8a25.91 25.91 0 0 0 25.9 25.9h96.9a25.91 25.91 0 0 0 25.9-25.9V72.7c0-14.3-11.7-25.9-26-25.9h0zm-83.3-5.7c3 1.5 6.6.3 8.2-2.7.3-.6 7.2-13.6 26.8-13.6s26.4 13 26.6 13.5c1 2.2 3.2 3.5 5.5 3.5.9 0 1.8-.2 2.6-.6 3-1.4 4.3-5.1 2.9-8.1-.4-.8-10-20.5-37.6-20.5-27.5 0-37.4 19.6-37.8 20.4-1.5 3-.2 6.6 2.8 8.1zm11.1 44a6.06 6.06 0 0 0-6.1 6.1v6a6.06 6.06 0 0 0 6.1 6.1 6.06 6.06 0 0 0 6.1-6.1v-6c0-3.3-2.7-6.1-6.1-6.1zm47.6 0a6.06 6.06 0 0 0-6.1 6.1v6a6.1 6.1 0 1 0 12.2 0v-6c0-3.3-2.7-6.1-6.1-6.1z"/><path d="M115 112.7c-2.8-1.8-6.6-1-8.4 1.8 0 0-2.6 3.8-6.6 3.8-3.9 0-6.3-3.5-6.5-3.8-1.8-2.8-5.5-3.7-8.4-1.9s-3.7 5.5-2 8.4c2.2 3.5 8.2 9.5 16.8 9.5s14.7-5.9 16.9-9.4c1.9-2.8 1-6.6-1.8-8.4zm33.4-65.9H51.6a25.91 25.91 0 0 0-25.9 25.9v88.8a25.91 25.91 0 0 0 25.9 25.9h96.9a25.91 25.91 0 0 0 25.9-25.9V72.8c0-14.3-11.7-26-26-26zm13.8 114.7c0 7.6-6.2 13.7-13.7 13.7H51.6c-7.6 0-13.7-6.2-13.7-13.7V72.7C37.8 65.2 44 59 51.6 59h10.1v8.1a6.06 6.06 0 0 0 6.1 6.1 6.06 6.06 0 0 0 6.1-6.1V59h52.3v8.1a6.1 6.1 0 1 0 12.2 0V59h10.1c7.6 0 13.7 6.2 13.7 13.7v88.8z"/></g></svg>