<?xml version="1.0" encoding="UTF-8"?>
<svg width="19px" height="21px" viewBox="0 0 19 21" version="1.1" xmlns="http://www.w3.org/2000/svg" xmlns:xlink="http://www.w3.org/1999/xlink">
    <!-- Generator: Sketch 63.1 (92452) - https://sketch.com -->
    <title>5488FABD-FD37-4C00-889C-F77BB20826F1</title>
    <desc>Created with Sketch.</desc>
    <g id="控件" stroke="none" stroke-width="1" fill="none" fill-rule="evenodd">
        <g id="icon/24/heart-line备份-3" transform="translate(-3.000000, -2.000000)" fill="#333333" fill-rule="nonzero">
            <g id="jifen" transform="translate(3.000000, 2.000000)">
                <path d="M7.65649808,7.31198638 C10.0173851,7.31198638 12.4727234,6.79280025 13.9474644,5.80273811 L13.9474644,7.60500217 L15.3135569,7.60500217 L15.3135569,3.65895096 C15.3135569,1.28662723 11.3696747,0.00571833756 7.65886427,0.00571833756 C3.94805385,0.00571833756 0.00180546979,1.28662723 0.00180546979,3.65895096 L0.00180546979,14.4291547 C0.00180546979,16.8014784 3.94568766,18.0823873 7.65649808,18.0823873 L7.65649808,16.718661 C3.758757,16.718661 1.36553175,15.3847096 1.36553175,14.4293519 L1.36553175,11.1915865 C2.84027276,12.1792824 5.29344202,12.7008348 7.65649808,12.7008348 L7.65649808,11.3345451 C3.758757,11.3345451 1.36553175,10.0007908 1.36553175,9.04543311 L1.36553175,5.80530152 C2.84027276,6.79280025 5.29580824,7.31198638 7.65649808,7.31198638 Z M7.65649808,1.36964179 C11.5544363,1.36964179 13.9474644,2.70359325 13.9474644,3.65895096 C13.9474644,4.61430864 11.5542392,5.9482601 7.65649808,5.9482601 C3.758757,5.9482601 1.36553175,4.61430864 1.36553175,3.65895096 C1.36572895,2.70359327 3.76112321,1.36964179 7.65649808,1.36964179 L7.65649808,1.36964179 Z M13.7767028,8.05970904 C10.3867112,8.05970904 8.61422198,9.36368848 8.61422198,10.6513017 L8.61422198,17.5722717 C8.61422198,18.8598848 10.3888802,20.1638643 13.7767028,20.1638643 C17.1414549,20.1638643 18.9113807,18.8784201 18.9389865,17.5998775 L18.9413527,17.5998775 L18.9413527,10.6514988 C18.9389865,9.3636885 17.1666945,8.05970904 13.7767028,8.05970904 L13.7767028,8.05970904 Z M13.7767028,9.42363252 C16.2829146,9.42363252 17.5752602,10.2843418 17.5752602,10.6513017 C17.5752602,11.0182615 16.2829147,11.8789708 13.7767028,11.8789708 C11.270491,11.8789708 9.97814543,11.0182615 9.97814543,10.6513017 C9.97814543,10.2843418 11.270491,9.42363252 13.7767028,9.42363252 L13.7767028,9.42363252 Z M13.7767028,18.7999408 C11.270491,18.7999408 9.97814543,17.9392316 9.97814543,17.5722717 L9.97814543,15.9198676 C10.8435871,16.3907436 12.1152283,16.704661 13.7767028,16.704661 C15.4381773,16.704661 16.7074523,16.3909408 17.5752602,15.9198676 L17.5752602,17.5722717 C17.5752602,17.9392315 16.2829147,18.7999408 13.7767028,18.7999408 L13.7767028,18.7999408 Z M13.7767028,15.3383713 C11.270491,15.3383713 9.97814543,14.4774649 9.97814543,14.1107021 L9.97814543,12.4582981 C10.8435871,12.9291741 12.1152283,13.2428943 13.7767028,13.2428943 C15.4381773,13.2428943 16.7074523,12.9291741 17.5752602,12.4582981 L17.5752602,14.1107021 C17.5752602,14.4774649 16.2829147,15.3383713 13.7767028,15.3383713 L13.7767028,15.3383713 Z" id="形状"></path>
            </g>
        </g>
    </g>
</svg>