<?xml version="1.0" encoding="UTF-8"?>
<svg width="20px" height="20px" viewBox="0 0 20 20" version="1.1" xmlns="http://www.w3.org/2000/svg" xmlns:xlink="http://www.w3.org/1999/xlink">
    <!-- Generator: Sketch 63.1 (92452) - https://sketch.com -->
    <title>7230E191-645D-487A-9F1F-EACC7E40A6C1</title>
    <desc>Created with Sketch.</desc>
    <g id="控件" stroke="none" stroke-width="1" fill="none" fill-rule="evenodd">
        <g id="icon/24/heart-line备份-9" transform="translate(-2.000000, -2.000000)" fill="#0B0B0B" fill-rule="nonzero">
            <g id="qupiao-2" transform="translate(2.000000, 2.000000)">
                <path d="M17.2498655,0 C18.7687191,0 20.0000001,1.23117379 20.0000001,2.74989531 L20.0000001,6.24956644 C20.0000001,7.76828796 18.7687191,8.99946174 17.2498655,8.99946174 L16.7498411,8.99946174 L16.7498411,19.2486803 C16.7498411,19.8666145 16.0442119,20.2194962 15.5498607,19.8486183 L13.9999022,18.6862995 L12.5997947,19.7361422 C12.2443391,20.0027596 11.7554654,20.0027596 11.3998142,19.7361422 L9.99970665,18.6862995 L8.5997947,19.7361422 C8.24414351,20.0027596 7.75526984,20.0027596 7.39981427,19.7361422 L5.99990231,18.6862995 L4.4499439,19.8486183 C3.95539703,20.2193006 3.24996347,19.8666145 3.24996347,19.2486803 L3.24996347,8.99926612 L2.74993902,8.99926612 C1.25514762,8.99926612 0.0391257169,7.80682327 0.00097832859,6.32135557 L9.31734279e-08,6.24937084 L9.31734279e-08,2.74969969 C-0.000391066551,1.23117379 1.2308898,0 2.74954777,0 L17.2498655,0 Z M14.9997555,4.99961403 L4.99965779,4.99961403 C4.86154462,4.99961403 4.74964557,5.11150335 4.74964557,5.24960451 L4.74964557,17.7487374 L5.39971647,17.2612755 C5.75536766,16.9946581 6.24424133,16.9946581 6.59969691,17.2612755 L7.99960885,18.3111182 L9.39952082,17.2612755 C9.75497639,16.9946581 10.2440457,16.9946581 10.5995012,17.2612755 L11.9996088,18.3111182 L13.3995208,17.2612755 C13.7549763,16.9946581 14.2440456,16.9946581 14.5995012,17.2612755 L15.2495724,17.7487374 L15.2495724,5.24940891 C15.2497678,5.11150337 15.1378687,4.99961403 14.9997555,4.99961403 Z M10.7493521,11.8033456 C11.163496,11.8033456 11.4993887,12.1390136 11.4993887,12.553317 C11.4993887,12.9674249 11.1636916,13.3030929 10.7493521,13.3030929 L7.74920537,13.3030929 C7.33506149,13.3030929 6.9991687,12.9674249 6.9991687,12.553317 C6.9991687,12.1390136 7.33486587,11.8033456 7.74920537,11.8033456 L10.7493521,11.8033456 Z M12.2500123,8.55346932 C12.6643518,8.55346932 13.000049,8.8891373 13.000049,9.30344077 C13.000049,9.71754864 12.6643518,10.0534122 12.2500123,10.0534122 L7.74940101,10.0534122 C7.33525712,10.0534122 6.99955995,9.71774424 6.99955995,9.30344077 C6.99955995,8.8891373 7.33525712,8.55346932 7.74940101,8.55346932 L12.2500123,8.55346932 L12.2500123,8.55346932 Z M17.2498655,1.49974727 L2.74954777,1.49974727 C2.41800042,1.49974727 2.10002153,1.63139198 1.86550611,1.8657349 C1.6311428,2.10022993 1.49948665,2.41818117 1.49948665,2.74969969 L1.49948665,6.24937084 C1.49948665,6.58093099 1.6311441,6.89879837 1.86550611,7.1333356 C2.10002153,7.36767853 2.41800042,7.49932323 2.74954777,7.49932323 L3.24957222,7.49932323 L3.24957222,5.24940891 C3.24957222,4.28309202 4.03306123,3.49947553 4.99965779,3.49947553 L14.9997555,3.49947553 C15.9661564,3.49947553 16.7498411,4.2828964 16.7498411,5.24940891 L16.7498411,7.49932323 L17.2498655,7.49932323 C17.9191079,7.49932323 18.4696044,6.97234798 18.4987529,6.303555 L18.4999267,6.24937084 L18.4999267,2.74969969 C18.4999267,2.41813954 18.3682692,2.10027215 18.1339072,1.8657349 C17.8993711,1.63142292 17.5814056,1.49974727 17.2498655,1.49974727 Z" id="形状"></path>
            </g>
        </g>
    </g>
</svg>