<?xml version="1.0" encoding="UTF-8"?>
<svg width="20px" height="18px" viewBox="0 0 20 18" version="1.1" xmlns="http://www.w3.org/2000/svg" xmlns:xlink="http://www.w3.org/1999/xlink">
    <!-- Generator: Sketch 63.1 (92452) - https://sketch.com -->
    <title>F1FBDF1D-17B9-4EAF-9CDE-E2067CDE1DF6</title>
    <desc>Created with Sketch.</desc>
    <g id="控件" stroke="none" stroke-width="1" fill="none" fill-rule="evenodd">
        <g id="icon/24/heart-line备份-8" transform="translate(-2.000000, -3.000000)" fill="#333333" fill-rule="nonzero">
            <g id="jifen-2" transform="translate(2.000000, 3.000000)">
                <path d="M6.32265625,1.3609375 L1.59824219,6.74726562 L10.0035156,15.8513672 L18.4132813,6.74082031 L13.7367187,1.3609375 L6.32265625,1.3609375 Z M6.11972656,0.0107419323 L13.9400391,0.0107419323 C14.1884766,0.0107419323 14.4246094,0.118359375 14.5873047,0.305664062 L19.7882813,6.29023437 C20.075,6.62011719 20.0675781,7.11289062 19.7710937,7.43417969 L10.6339844,17.3337891 C10.4716652,17.5098047 10.2431457,17.6099609 10.0037109,17.6099609 C9.76425781,17.6099609 9.53574219,17.5099609 9.3734375,17.3337891 L0.237890625,7.43671875 C-0.0591796875,7.11445312 -0.065625,6.61992187 0.223242188,6.29023437 L5.47480469,0.302148437 C5.63783198,0.116737931 5.87283606,0.0105519576 6.11972656,0.0107419323 Z M10.0037109,10.4914062 L12.9410156,7.228125 L14.1029297,8.27421875 L10.0037109,12.8283203 L5.90449219,8.27402344 L7.06640625,7.22792969 L10.0037109,10.4914062 Z" id="形状"></path>
            </g>
        </g>
    </g>
</svg>