<?xml version="1.0" encoding="UTF-8"?>
<svg width="21px" height="25px" viewBox="0 0 21 25" version="1.1" xmlns="http://www.w3.org/2000/svg" xmlns:xlink="http://www.w3.org/1999/xlink">
    <!-- Generator: Sketch 63.1 (92452) - https://sketch.com -->
    <title>11C1602C-6F6A-445C-9E86-5359E94C49BA</title>
    <desc>Created with Sketch.</desc>
    <g id="控件" stroke="none" stroke-width="1" fill="none" fill-rule="evenodd">
        <g id="profile-icon" transform="translate(-2.000000, -1.000000)" fill="#2C2C2C" fill-rule="nonzero">
            <g id="profile" transform="translate(2.000000, 1.000000)">
                <path d="M10.3527987,1.9778481 C6.87870847,1.9778481 4.04840783,4.82001582 4.04840783,8.34404668 C4.04840783,11.8680775 6.87870847,14.7102453 10.3527987,14.7102453 C13.8268888,14.7102453 16.6571895,11.8680775 16.6571895,8.34404668 C16.6571895,4.82001582 13.8268888,1.9778481 10.3527987,1.9778481 Z M2.07055973,8.34404668 C2.07055973,3.74357199 5.77061907,0 10.3527987,0 C14.9349782,0 18.6350376,3.74357199 18.6350376,8.34404668 C18.6350376,12.9445214 14.9349782,16.6880934 10.3527987,16.6880934 C5.77061907,16.6880934 2.07055973,12.9445214 2.07055973,8.34404668 Z" id="形状"></path>
                <path d="M13.447142,9.77650316 C13.6738027,9.90864412 13.8386632,10.1254397 13.9054338,10.3791679 C13.9722044,10.632896 13.9354117,10.9027583 13.8031547,11.1293513 C13.451534,11.7313708 12.9475954,12.2301932 12.3420194,12.5756527 C11.1093613,13.2798693 9.59623602,13.2798693 8.36357793,12.5756527 C7.7580161,12.2301745 7.25408189,11.7313564 6.90244264,11.1293513 C6.62717414,10.6574624 6.78656643,10.0517717 7.2584553,9.77650316 C7.73034417,9.50123466 8.3360349,9.66062695 8.6113034,10.1325158 C8.78780246,10.4346267 9.04070109,10.6849673 9.34459059,10.8583861 C9.96936064,11.2152519 10.7362367,11.2152519 11.3610067,10.8583861 C11.6649104,10.684986 11.9178134,10.4346411 12.0942939,10.1325158 C12.2264349,9.90585517 12.4432305,9.7409946 12.6969586,9.67422404 C12.9506868,9.60745347 13.220549,9.64424618 13.447142,9.77650316 L13.447142,9.77650316 Z M13.0817346,14.8091377 C13.1820476,14.5667847 13.374531,14.3742103 13.6168366,14.2737829 C13.8591421,14.1733554 14.1314192,14.1733023 14.3737638,14.2736353 C15.6485949,14.8017623 16.8069154,15.5758242 17.782585,16.5516218 L17.0834157,17.2507911 L17.782585,16.5516218 C19.2231217,17.992119 20.2138399,19.8203178 20.6341475,21.8136867 C21.0183445,23.6392405 19.4598002,24.9703323 17.8933445,24.9703323 L2.81225277,24.9703323 C1.24579707,24.9703323 -0.313241693,23.6392405 0.0714497627,21.8136867 C0.491838446,19.8203476 1.48254476,17.9921706 2.92301226,16.5516218 L3.62218157,17.2507911 L2.92301226,16.5516218 C3.14057555,16.3340585 3.3665447,16.1273734 3.60141416,15.9305775 L4.23679786,16.6880934 L3.60141416,15.9305775 C4.42183736,15.2425319 5.34261002,14.6839321 6.33183347,14.2741297 C6.83343335,14.077791 7.39990975,14.3190063 7.60598517,14.8166851 C7.81206059,15.314364 7.58192926,15.8854331 7.08836036,16.1011669 C4.48858269,17.1781537 2.58730435,19.4681239 2.00677413,22.2216179 C1.96672271,22.4129747 2.01913568,22.5810918 2.15313489,22.7239913 C2.29652888,22.8772745 2.53288172,22.9924842 2.81225277,22.9924842 L17.8933445,22.9924842 C18.1727156,22.9924842 18.4090684,22.8772745 18.5524624,22.7239913 C18.6859672,22.5815862 18.7388746,22.4124802 18.6988232,22.2216179 C18.3580367,20.603342 17.5538363,19.1191533 16.3842464,17.9499604 L17.0008406,17.3333663 L16.3842464,17.9499604 C15.5921782,17.1578465 14.651756,16.5296102 13.6167425,16.1011669 C13.1122595,15.8920819 12.8727446,15.3136601 13.0817346,14.8091377 L13.0817346,14.8091377 Z" id="形状"></path>
            </g>
        </g>
    </g>
</svg>