<?xml version="1.0" encoding="UTF-8"?>
<svg width="15px" height="17px" viewBox="0 0 15 17" version="1.1" xmlns="http://www.w3.org/2000/svg" xmlns:xlink="http://www.w3.org/1999/xlink">
    <!-- Generator: Sketch 63.1 (92452) - https://sketch.com -->
    <title>4F11AF32-EE1C-40F6-8954-1BEBA7669C22</title>
    <desc>Created with Sketch.</desc>
    <g id="页面-1" stroke="none" stroke-width="1" fill="none" fill-rule="evenodd">
        <g id="Membership-points备份-12" transform="translate(-202.000000, -363.000000)" fill="#2A2A2A" fill-rule="nonzero">
            <g id="renminbi" transform="translate(202.000000, 363.000000)">
                <path d="M13.9951749,10.0887288 C14.525003,10.0887288 15,10.4109854 15,10.87656 C15,11.2704548 14.5249817,11.6285827 13.9951749,11.6285827 L8.38613444,11.6285827 L8.38613444,16.1405933 C8.38613444,16.534488 8.00242322,17 7.3813093,17 C6.81492002,17 6.33985912,16.534488 6.33985912,16.1405933 L6.33985912,11.6285827 L0.968349147,11.6285827 C0.43852103,11.6285827 0,11.2704339 0,10.8407514 C0,10.4110689 0.438478442,10.0887288 0.968349147,10.0887288 L6.35812906,10.0887288 L6.35812906,7.74318106 L0.968349147,7.74318106 C0.43852103,7.74318106 0,7.43880784 0,6.95534982 C0,6.56145506 0.438478442,6.22127322 0.968349147,6.22127322 L5.60904042,6.22127322 L1.86363985,1.29746355 C1.68096179,0.903568798 1.80887263,0.31274753 2.26557842,0.0978749764 C2.75893055,-0.134901884 3.27040356,0.0799915367 3.52622524,0.402248198 L7.41782788,5.54093042 L11.3825316,0.778259515 C11.6383532,0.42011077 12.1864513,-0.0453803482 12.8441902,0.330630969 C13.5384691,0.742409166 13.1000119,1.54818646 13.1000119,1.54818646 L9.20840928,6.20347325 L13.7760208,6.20347325 C14.3058489,6.20347325 14.780846,6.52572991 14.780846,6.97340019 C14.780846,7.42107048 14.3058276,7.72542283 13.7760208,7.72542283 L8.38624091,7.72542283 L8.38624091,10.0709705 L13.9952813,10.088854 L13.9951749,10.0887288 Z" id="路径"></path>
            </g>
        </g>
    </g>
</svg>