<?xml version="1.0" encoding="UTF-8"?>
<svg width="20px" height="22px" viewBox="0 0 20 22" version="1.1" xmlns="http://www.w3.org/2000/svg" xmlns:xlink="http://www.w3.org/1999/xlink">
    <!-- Generator: Sketch 63.1 (92452) - https://sketch.com -->
    <title>66F14713-663E-4125-8532-80D6F9FE8BA7</title>
    <desc>Created with Sketch.</desc>
    <g id="控件" stroke="none" stroke-width="1" fill="none" fill-rule="evenodd">
        <g id="icon/24/heart-line备份-4" transform="translate(-2.000000, -1.000000)" fill="#333333" fill-rule="nonzero">
            <g id="shangpin-gouwudai" transform="translate(2.000000, 1.000000)">
                <path d="M5.52527333,6.3577244 L2.99464886,6.3577244 L1.6822245,19.88048 L18.2612878,19.88048 L16.949493,6.3577244 L14.4186587,6.3577244 L14.4186587,7.99500212 C14.4186587,8.28397051 14.1844621,8.51816713 13.8957035,8.51816713 L13.3725385,8.51816713 C13.0835701,8.51816713 12.8493735,8.28397051 12.8493735,7.99500212 L12.8493735,6.3577244 L7.09560776,6.3577244 L7.09560776,7.99500212 C7.09560776,8.28397051 6.86141114,8.51816713 6.57244275,8.51816713 L6.04948759,8.51816713 C5.7605192,8.51816713 5.52632258,8.28397051 5.5263226,7.99500212 L5.5263226,6.3577244 L5.52527333,6.3577244 Z M5.52527333,4.78843924 L5.52527333,4.72884083 C5.52527333,2.13106321 7.50272373,0.00314780746 9.97144136,0.00314780746 C12.4405787,0.00314780746 14.4176094,2.13106324 14.4176094,4.72884083 L14.4176094,4.78843924 L17.8986608,4.78843924 C18.167903,4.78864909 18.3932857,4.99325634 18.4190977,5.26123939 L19.9344505,20.8758156 C19.9487765,21.0226412 19.9004221,21.168688 19.8013069,21.2779545 C19.7021917,21.3872211 19.5615365,21.4495553 19.4140136,21.4495553 L0.529918431,21.4495553 C0.38239136,21.4495553 0.241789441,21.3870189 0.142528709,21.2778951 C0.0434047622,21.1686523 -0.00498797671,21.0226358 0.00927167339,20.8758156 L1.52462445,5.26123939 C1.55043645,4.99325636 1.77560935,4.78864911 2.04527121,4.78843924 L5.52590289,4.78843924 L5.52527333,4.78843924 Z M12.8485341,4.78843924 L12.8485341,4.72884083 C12.8485341,2.97341553 11.5474418,1.57243296 9.97144136,1.57243296 C8.39649015,1.57243296 7.09455849,2.97341553 7.09455849,4.72884083 L7.09455849,4.78843924 L12.8485341,4.78843924 Z" id="形状"></path>
            </g>
        </g>
    </g>
</svg>